<svg width="224" height="224" viewBox="0 0 224 224" fill="none" xmlns="http://www.w3.org/2000/svg">
<g clip-path="url(#clip0_514_98)">
<path d="M115.213 118.325C121.301 115.215 123.715 107.758 120.605 101.67C117.494 95.5825 110.038 93.1686 103.95 96.2789C97.862 99.3891 95.4481 106.846 98.5583 112.934C101.669 119.021 109.125 121.435 115.213 118.325Z" fill="#34F3FF"/>
<path d="M89.916 144.986L87.1581 145.608C66.7016 150.289 52.3332 147.818 47.7554 138.857C43.1744 129.89 49.6018 116.803 65.3765 102.973L67.5003 101.11L69.4193 103.174C74.4803 108.56 79.9741 113.523 85.8458 118.011L86.9322 118.842L86.9689 120.21C87.1664 127.608 87.9622 134.973 89.3711 142.227L89.916 144.986V144.986ZM67.1235 109.167C55.3398 120.078 49.9081 130.313 52.9242 136.217C55.934 142.108 67.4075 143.714 83.1569 140.551C82.1043 134.329 81.4636 128.045 81.2262 121.757C76.2492 117.881 71.5378 113.674 67.1235 109.167V109.167ZM151.639 113.452L149.723 111.379C144.657 105.994 139.16 101.031 133.288 96.5384L132.204 95.7135L132.164 94.34C131.973 86.9541 131.162 79.5892 129.772 72.3254L129.22 69.5699L131.975 68.9412C152.438 64.2575 166.797 66.7258 171.381 75.6987C175.962 84.6654 169.541 97.75 153.76 111.583L151.639 113.452V113.452ZM137.898 92.8047C143.1 96.8906 147.845 101.102 152.007 105.376C163.8 94.4689 169.228 84.2275 166.219 78.3362C163.202 72.4325 151.735 70.8386 135.973 73.9929C137.028 80.2143 137.671 86.4986 137.898 92.8047V92.8047Z" fill="#34F3FF"/>
<path d="M67.0735 109.161L65.1637 107.1C50.8883 91.7479 45.8604 78.0957 51.3695 69.6277C56.7404 61.3159 71.6769 60.2653 91.2637 66.8844L93.9388 67.7917L93.103 70.4847C90.9638 77.5636 89.4023 84.8043 88.434 92.1357L88.2472 93.4926L87.0873 94.2098C80.7779 98.0842 74.7947 102.466 69.1974 107.313L67.0735 109.161V109.161ZM59.3994 70.0264C58.0161 70.7331 56.9479 71.6604 56.2195 72.7801C52.6112 78.338 56.9499 89.056 67.5432 101.103C72.424 97.0754 77.5309 93.3684 82.8766 90.0222C83.7686 83.7732 85.0648 77.5886 86.7572 71.5074C74.7133 67.794 64.8523 67.2406 59.3994 70.0264V70.0264ZM162.368 149.68C155.031 153.428 142.781 152.709 127.869 147.665L125.203 146.761L126.036 144.077C128.172 136.991 129.732 129.743 130.702 122.405L130.888 121.063L132.027 120.334C138.343 116.467 144.331 112.088 149.929 107.24L152.053 105.376L153.972 107.44C168.216 122.793 173.26 136.46 167.763 144.922C166.42 146.96 164.557 148.602 162.368 149.68V149.68ZM132.382 143.039C144.419 146.756 154.29 147.312 159.736 144.53C161.126 143.82 162.191 142.886 162.916 141.776C166.528 136.209 162.186 125.469 151.58 113.428C146.708 117.459 141.599 121.175 136.24 124.528C135.366 130.777 134.077 136.961 132.382 143.039V143.039Z" fill="#34F3FF"/>
<path d="M135.993 73.9511L133.242 74.5859C126.031 76.2766 118.971 78.5576 112.134 81.4059L110.882 81.9129L109.679 81.2659C103.171 77.7502 96.3869 74.7729 89.3935 72.364L86.7277 71.4598L87.5605 68.7761C93.6727 49.0355 103.271 37.5515 113.163 38.0581C123.25 38.5662 131.372 50.6377 135.448 71.1925L135.993 73.9511ZM111.211 75.546C117.371 73.0611 123.405 71.0922 129.188 69.6092C125.641 53.9624 119.499 44.1657 112.872 43.8292C106.278 43.4832 99.0033 52.8846 93.9535 67.8305C99.8714 70.0246 105.637 72.5922 111.211 75.546ZM112.978 174.912C110.821 176.053 108.399 176.599 105.961 176.495C95.8713 175.997 87.7495 163.91 83.6728 143.355L83.1062 140.599L85.861 139.971C92.5807 138.43 99.6785 136.135 106.962 133.138L108.22 132.644L109.423 133.275C115.923 136.792 122.713 139.778 129.712 142.199L132.381 143.094L131.545 145.787C126.903 160.828 120.303 171.17 112.978 174.912V174.912ZM89.9296 144.932C93.4829 160.575 99.6343 170.391 106.256 170.73C112.833 171.03 120.093 161.675 125.177 146.72C119.258 144.525 113.488 141.951 107.9 139.014C102.047 141.38 96.0435 143.357 89.9296 144.932V144.932Z" fill="#34F3FF"/>
<path d="M135.993 73.9512L133.242 74.586C126.03 76.2768 118.971 78.5578 112.134 81.406L110.882 81.9131L109.679 81.266C103.171 77.7503 96.3869 74.7731 89.3935 72.3641L86.7277 71.4599L87.5604 68.7762C93.6727 49.0356 103.271 37.5517 113.163 38.0583C123.25 38.5663 131.372 50.6378 135.448 71.1926L135.993 73.9512ZM111.211 75.5462C117.371 73.0613 123.405 71.0923 129.188 69.6093C125.641 53.9626 119.499 44.1658 112.872 43.8294C106.278 43.4834 99.0033 52.8847 93.9535 67.8307C99.8714 70.0248 105.637 72.5923 111.211 75.5462ZM112.978 174.912C110.821 176.053 108.399 176.599 105.961 176.495C95.8713 175.997 87.7495 163.91 83.6728 143.355L83.1062 140.6L85.861 139.971C92.5807 138.43 99.6785 136.136 106.962 133.139L108.22 132.644L109.423 133.275C115.923 136.792 122.713 139.779 129.712 142.199L132.381 143.094L131.545 145.787C126.903 160.829 120.303 171.17 112.978 174.912V174.912ZM89.9296 144.932C93.4829 160.576 99.6343 170.391 106.256 170.73C112.833 171.03 120.093 161.675 125.177 146.72C119.258 144.525 113.488 141.951 107.9 139.014C102.047 141.38 96.0435 143.357 89.9296 144.932V144.932Z" fill="#34F3FF"/>
<path d="M122.417 132.423C118.175 134.59 113.73 136.635 109.171 138.505L107.907 139.018L106.698 138.374C102.422 136.088 98.2399 133.629 94.1637 131.002C90.0985 128.357 86.1415 125.549 82.3024 122.586L81.2252 121.758L81.1792 120.387C81.0318 115.541 81.0704 110.693 81.3137 105.85C81.5762 101.074 82.0364 96.1982 82.683 91.3668L82.876 90.0222L84.0296 89.2927C92.2869 84.1631 100.959 79.7329 109.954 76.0483L111.212 75.5536L112.415 76.1851C120.978 80.7559 129.145 86.0339 136.829 91.9642L137.906 92.8078L137.952 94.1627C138.267 103.865 137.758 113.576 136.43 123.192L136.243 124.549L135.099 125.266C130.919 127.846 126.654 130.258 122.417 132.423V132.423ZM108.239 132.626C116.16 129.304 123.558 125.525 130.885 121.057C131.956 112.654 132.397 104.183 132.203 95.7136C125.463 90.5815 118.34 85.9734 110.895 81.9297C103.061 85.1999 95.4906 89.0676 88.2499 93.4988C87.159 101.9 86.7182 110.373 86.9313 118.842C93.6852 123.955 100.807 128.562 108.239 132.626V132.626Z" fill="#34F3FF"/>
</g>
<defs>
<clipPath id="clip0_514_98">
<rect width="166.432" height="166.432" fill="white" transform="translate(0 75.7183) rotate(-27.0618)"/>
</clipPath>
</defs>
</svg>
