<svg width="120" height="126" viewBox="0 0 120 126" fill="none" xmlns="http://www.w3.org/2000/svg">
<path d="M60 10.5C87.61 10.5 110 34.0095 110 63C110 91.9905 87.61 115.5 60 115.5C32.39 115.5 10 91.9905 10 63C10 34.0095 32.39 10.5 60 10.5ZM50.065 80.493C50.795 83.3122 50.715 85.9478 49.96 88.3313L49.69 89.1188C49.0584 90.7062 48.1665 92.165 47.055 93.429C44.145 96.7522 40.085 98.007 38.345 96.9517C36.47 95.802 37.405 91.1138 40.78 87.3705C44.41 83.3543 49.61 80.766 49.61 80.766V80.7555L50.065 80.493V80.493ZM91.355 32.9753C89.095 23.646 74.37 20.5747 60.43 25.7775C52.15 28.8697 43.165 33.7312 36.715 40.0732C29.035 47.6017 27.815 54.1642 28.315 56.9047C30.09 66.5805 42.72 72.9068 47.915 77.6003V77.6265C46.38 78.4088 35.175 84.315 32.555 90.426C29.74 96.8573 32.995 101.456 35.12 102.039C41.685 103.945 48.43 100.464 52.06 94.8255C55.555 89.3078 55.25 82.2255 53.745 78.7447C55.81 78.1567 58.24 77.8943 61.365 78.2933C70.12 79.338 71.87 85.1183 71.485 87.4808C71.115 89.838 69.305 91.2135 68.68 91.6072C68.05 92.0062 67.865 92.1375 67.925 92.4C67.99 92.7885 68.305 92.7885 68.8 92.7308C69.49 92.5995 73.37 90.762 73.555 86.289C73.74 80.6505 68.615 74.3557 59.49 74.4765C55.74 74.55 53.36 74.8755 51.675 75.6C51.5613 75.4149 51.4113 75.2574 51.235 75.138C45.61 68.7698 35.17 64.3073 35.61 55.8443C35.735 52.7573 36.795 44.625 55.61 34.7812C71.05 26.7068 83.365 28.9432 85.495 33.8625C88.545 40.8765 78.925 53.9438 62.865 55.8443C56.74 56.5688 53.555 54.075 52.735 53.151C51.865 52.164 51.745 52.101 51.43 52.3058C50.925 52.5683 51.24 53.4188 51.43 53.949C51.93 55.2563 53.865 57.561 57.245 58.737C60.18 59.724 67.365 60.3067 75.995 56.7682C85.68 52.836 93.24 41.8687 91.055 32.6812L91.355 32.9753V32.9753Z" fill="#E33AFF"/>
</svg>
