<svg width="48" height="48" viewBox="0 0 48 48" fill="none" xmlns="http://www.w3.org/2000/svg">
<path d="M40 6H8C7.46957 6 6.96086 6.21071 6.58579 6.58579C6.21071 6.96086 6 7.46957 6 8V40C6 40.5304 6.21071 41.0391 6.58579 41.4142C6.96086 41.7893 7.46957 42 8 42H40C40.5304 42 41.0391 41.7893 41.4142 41.4142C41.7893 41.0391 42 40.5304 42 40V8C42 7.46957 41.7893 6.96086 41.4142 6.58579C41.0391 6.21071 40.5304 6 40 6ZM16.678 36.674H11.334V19.494H16.678V36.674ZM14.006 17.148C13.1849 17.148 12.3974 16.8218 11.8168 16.2412C11.2362 15.6606 10.91 14.8731 10.91 14.052C10.91 13.2309 11.2362 12.4434 11.8168 11.8628C12.3974 11.2822 13.1849 10.956 14.006 10.956C14.8271 10.956 15.6146 11.2822 16.1952 11.8628C16.7758 12.4434 17.102 13.2309 17.102 14.052C17.102 14.8731 16.7758 15.6606 16.1952 16.2412C15.6146 16.8218 14.8271 17.148 14.006 17.148ZM36.676 36.674H31.338V28.32C31.338 26.328 31.302 23.766 28.562 23.766C25.782 23.766 25.36 25.938 25.36 28.18V36.676H20.026V19.496H25.146V21.844H25.22C25.93 20.494 27.674 19.07 30.268 19.07C35.676 19.07 36.674 22.626 36.674 27.254V36.674H36.676Z" fill="#25A4FF"/>
</svg>
