<svg width="48" height="48" viewBox="0 0 48 48" fill="none" xmlns="http://www.w3.org/2000/svg">
<path fill-rule="evenodd" clip-rule="evenodd" d="M24.0515 4C13.0335 4 4.10352 12.93 4.10352 23.948C4.10352 32.76 9.81752 40.238 17.7455 42.878C18.7435 43.058 19.1035 42.444 19.1035 41.916C19.1035 41.442 19.0875 40.186 19.0815 38.524C13.5315 39.728 12.3595 35.848 12.3595 35.848C11.4555 33.544 10.1455 32.93 10.1455 32.93C8.33552 31.692 10.2835 31.72 10.2835 31.72C12.2875 31.86 13.3375 33.776 13.3375 33.776C15.1175 36.824 18.0095 35.944 19.1415 35.434C19.3235 34.144 19.8435 33.264 20.4115 32.766C15.9835 32.264 11.3275 30.552 11.3275 22.906C11.3275 20.732 12.1055 18.948 13.3755 17.556C13.1735 17.05 12.4835 15.02 13.5735 12.276C13.5735 12.276 15.2475 11.738 19.0575 14.318C20.6847 13.8753 22.3632 13.6494 24.0495 13.646C25.7359 13.6487 27.4145 13.8747 29.0415 14.318C32.8535 11.736 34.5255 12.276 34.5255 12.276C35.6155 15.02 34.9315 17.05 34.7235 17.556C36.0035 18.948 36.7715 20.73 36.7715 22.906C36.7715 30.572 32.1115 32.256 27.6675 32.75C28.3775 33.366 29.0175 34.582 29.0175 36.442C29.0175 39.11 28.9935 41.262 28.9935 41.916C28.9935 42.45 29.3495 43.07 30.3675 42.874C38.2915 40.23 43.9995 32.758 43.9995 23.948C43.9995 12.93 35.0695 4 24.0515 4Z" fill="white"/>
</svg>
